<svg width="134" height="116" viewBox="0 0 134 116" fill="none" xmlns="http://www.w3.org/2000/svg">
<path d="M82.4594 95.8007C76.7527 90.4404 69.3506 90.7872 62.864 93.5766C56.3774 96.3659 50.419 101.33 44.099 104.86C38.8006 107.818 33.2407 109.761 27.6129 110.625C19.5581 111.854 10.563 110.352 4.95125 101.691C-1.29842 92.0406 -0.818431 74.6353 5.93836 65.7825C9.37722 61.2769 13.8797 59.065 17.8059 55.5425C21.7322 52.0199 25.3672 46.1818 25.0329 39.392C24.7231 33.1114 21.1239 28.2809 17.3988 25.2553C14.5201 22.9151 10.9751 20.3606 10.6284 15.5164C10.2928 10.8278 13.2739 7.15507 16.1204 5.06611C25.4067 -1.74963 36.8498 -1.6841 46.104 5.23814C49.4047 7.70667 52.4388 10.9903 55.8999 12.9154C64.9875 17.9671 75.0018 12.8813 84.6249 11.0217C92.7686 9.44746 101.121 10.2626 109.056 13.4069C113.821 15.2952 118.605 18.1856 121.953 23.5609C124.367 27.4385 125.871 32.3455 127.283 37.1924C128.788 42.3615 130.236 47.5667 131.625 52.8077C132.458 55.948 133.279 59.162 133.494 62.5275C133.884 68.6278 132.241 74.6572 130.003 79.8058C124.684 92.0269 115.734 100.622 106.04 102.806C96.3469 104.991 86.092 100.724 78.5739 91.3934" fill="white" fill-opacity="0.77"/>
<path d="M90.5267 100.801C85.721 95.4404 79.4876 95.7872 74.0252 98.5766C68.5629 101.366 63.5452 106.33 58.2231 109.86C53.7613 112.818 49.0793 114.761 44.3401 115.625C37.5571 116.854 29.9823 115.352 25.2566 106.691C19.9937 97.0406 20.3979 79.6353 26.0879 70.7825C28.9837 66.2769 32.7753 64.065 36.0816 60.5425C39.3879 57.0199 42.449 51.1818 42.1674 44.392C41.9066 38.1114 38.8757 33.2809 35.7387 30.2553C33.3146 27.9151 30.3293 25.3606 30.0374 20.5164C29.7547 15.8278 32.2651 12.1551 34.6623 10.0661C42.4823 3.25037 52.1186 3.3159 59.9116 10.2381C62.6911 12.7067 65.2462 15.9903 68.1607 17.9154C75.8135 22.9671 84.2465 17.8813 92.3502 16.0217C99.2081 14.4475 106.242 15.2626 112.924 18.4069C116.937 20.2952 120.965 23.1856 123.784 28.5609C125.818 32.4385 127.084 37.3455 128.273 42.1924C129.541 47.3615 130.759 52.5667 131.929 57.8077C132.631 60.948 133.322 64.162 133.504 67.5275C133.832 73.6278 132.448 79.6572 130.563 84.8058C126.085 97.0269 118.547 105.622 110.384 107.806C102.221 109.991 93.5857 105.724 87.2546 96.3934" fill="white" fill-opacity="0.5"/>
<path d="M66.1229 70.479H61.8463C61.3728 71.5469 61.1361 72.2874 61.1361 72.7004C61.1361 73.0026 61.2469 73.194 61.4685 73.2746C61.7003 73.3552 62.0428 73.3955 62.4961 73.3955V74H58.3556V73.3955C58.5973 73.3653 58.8039 73.325 58.9751 73.2746C59.1565 73.2243 59.3126 73.1538 59.4436 73.0631C59.5846 72.9724 59.7055 72.8566 59.8063 72.7155C59.907 72.5644 60.0027 72.3831 60.0934 72.1715L64.0677 62.2129H65.186L68.7977 71.0381C69.0092 71.5519 69.1855 71.9549 69.3266 72.2471C69.4777 72.5392 69.6338 72.7659 69.795 72.9271C69.9663 73.0782 70.1577 73.184 70.3693 73.2444C70.5909 73.3049 70.873 73.3502 71.2155 73.3804V74H65.5033V73.3804C65.9869 73.3603 66.3345 73.3099 66.546 73.2293C66.7576 73.1487 66.8634 72.9875 66.8634 72.7457C66.8634 72.6047 66.8281 72.4234 66.7576 72.2017C66.6871 71.9801 66.5914 71.7081 66.4705 71.3857L66.1229 70.479ZM62.1939 69.5723H65.7905L64.0526 64.9935H63.9922L62.1939 69.5723ZM82.0595 74H70.9978V73.6524L78.599 63.1499H74.7757C74.0302 63.1499 73.4661 63.3362 73.0832 63.709C72.7105 64.0817 72.4536 64.661 72.3125 65.4468H71.7232L71.965 62.3641H81.7573V62.7116L74.2317 73.1538H78.5536C79.0976 73.1538 79.5409 73.1084 79.8834 73.0177C80.2361 72.9271 80.5181 72.7659 80.7297 72.5342C80.9513 72.3025 81.1226 71.9952 81.2435 71.6124C81.3644 71.2295 81.4702 70.7409 81.5608 70.1465H82.256L82.0595 74ZM88.7521 74H83.3572V73.3955C83.6998 73.3855 83.9718 73.3552 84.1733 73.3049C84.3848 73.2444 84.546 73.1386 84.6568 72.9875C84.7676 72.8364 84.8432 72.6248 84.8835 72.3528C84.9238 72.0708 84.9439 71.693 84.9439 71.2195V65.1446C84.9439 64.7215 84.9238 64.3739 84.8835 64.1019C84.8533 63.8198 84.7878 63.5982 84.687 63.437C84.5863 63.2758 84.4402 63.165 84.2488 63.1045C84.0675 63.034 83.8206 62.9887 83.5083 62.9685V62.3641H88.601V62.9685C88.2886 62.9887 88.0368 63.034 87.8454 63.1045C87.664 63.165 87.523 63.2758 87.4222 63.437C87.3215 63.5982 87.251 63.8198 87.2107 64.1019C87.1805 64.3739 87.1654 64.7215 87.1654 65.1446V71.2195C87.1654 71.693 87.1805 72.0708 87.2107 72.3528C87.251 72.6248 87.3265 72.8364 87.4374 72.9875C87.5583 73.1386 87.7194 73.2444 87.9209 73.3049C88.1325 73.3552 88.4095 73.3855 88.7521 73.3955V74ZM96.2473 62.2129C97.154 62.2129 98.0003 62.3691 98.7861 62.6814C99.5719 62.9937 100.252 63.4219 100.826 63.9659C101.41 64.5099 101.869 65.1496 102.201 65.8851C102.534 66.6205 102.7 67.4164 102.7 68.2727C102.7 69.0887 102.529 69.8544 102.186 70.5697C101.854 71.2849 101.395 71.9096 100.811 72.4435C100.237 72.9674 99.5568 73.3855 98.7709 73.6978C97.9851 74 97.1439 74.1511 96.2473 74.1511C95.3507 74.1511 94.5095 74 93.7237 73.6978C92.9379 73.3855 92.2528 72.9674 91.6685 72.4435C91.0842 71.9096 90.6258 71.2849 90.2933 70.5697C89.9609 69.8544 89.7947 69.0887 89.7947 68.2727C89.7947 67.4164 89.9609 66.6205 90.2933 65.8851C90.6258 65.1496 91.0791 64.5099 91.6534 63.9659C92.2377 63.4219 92.9228 62.9937 93.7086 62.6814C94.4944 62.3691 95.3406 62.2129 96.2473 62.2129ZM96.2473 73.1689C96.8316 73.1689 97.3605 73.058 97.834 72.8364C98.3075 72.6047 98.7105 72.2823 99.043 71.8693C99.3754 71.4461 99.6273 70.9374 99.7985 70.343C99.9799 69.7385 100.071 69.0635 100.071 68.318C100.071 67.5322 99.9799 66.827 99.7985 66.2024C99.6273 65.5677 99.3754 65.0287 99.043 64.5855C98.7105 64.1321 98.3075 63.7896 97.834 63.5579C97.3605 63.3161 96.8316 63.1952 96.2473 63.1952C95.6529 63.1952 95.119 63.3161 94.6455 63.5579C94.1821 63.7896 93.7841 64.1321 93.4517 64.5855C93.1192 65.0287 92.8623 65.5677 92.681 66.2024C92.5097 66.827 92.4241 67.5322 92.4241 68.318C92.4241 69.0635 92.5097 69.7385 92.681 70.343C92.8623 70.9374 93.1192 71.4461 93.4517 71.8693C93.7841 72.2823 94.1821 72.6047 94.6455 72.8364C95.119 73.058 95.6529 73.1689 96.2473 73.1689ZM114.134 74H103.722V73.3955C104.055 73.3855 104.327 73.3552 104.538 73.3049C104.75 73.2545 104.911 73.1689 105.022 73.048C105.133 72.9271 105.208 72.7558 105.248 72.5342C105.289 72.3125 105.309 72.0254 105.309 71.6728V64.6913C105.309 64.3386 105.289 64.0566 105.248 63.845C105.218 63.6234 105.153 63.4521 105.052 63.3312C104.951 63.2002 104.805 63.1146 104.614 63.0743C104.432 63.0239 104.191 62.9887 103.888 62.9685V62.3641H109.102V62.9685C108.759 62.9786 108.482 63.0088 108.271 63.0592C108.069 63.1096 107.913 63.2002 107.802 63.3312C107.691 63.4622 107.616 63.6435 107.576 63.8752C107.545 64.1069 107.53 64.4142 107.53 64.797V71.1288C107.53 71.5519 107.571 71.8995 107.651 72.1715C107.742 72.4334 107.893 72.64 108.104 72.7911C108.316 72.9321 108.598 73.0329 108.951 73.0933C109.303 73.1437 109.742 73.1689 110.265 73.1689C110.85 73.1689 111.338 73.1336 111.731 73.0631C112.124 72.9926 112.452 72.8616 112.714 72.6702C112.986 72.4687 113.202 72.2017 113.363 71.8693C113.525 71.5368 113.661 71.1036 113.771 70.5697H114.376L114.134 74ZM120.54 74H115.145V73.3955C115.487 73.3855 115.759 73.3552 115.961 73.3049C116.172 73.2444 116.334 73.1386 116.444 72.9875C116.555 72.8364 116.631 72.6248 116.671 72.3528C116.711 72.0708 116.731 71.693 116.731 71.2195V65.1446C116.731 64.7215 116.711 64.3739 116.671 64.1019C116.641 63.8198 116.575 63.5982 116.475 63.437C116.374 63.2758 116.228 63.165 116.036 63.1045C115.855 63.034 115.608 62.9887 115.296 62.9685V62.3641H120.388V62.9685C120.076 62.9887 119.824 63.034 119.633 63.1045C119.452 63.165 119.31 63.2758 119.21 63.437C119.109 63.5982 119.038 63.8198 118.998 64.1019C118.968 64.3739 118.953 64.7215 118.953 65.1446V71.2195C118.953 71.693 118.968 72.0708 118.998 72.3528C119.038 72.6248 119.114 72.8364 119.225 72.9875C119.346 73.1386 119.507 73.2444 119.708 73.3049C119.92 73.3552 120.197 73.3855 120.54 73.3955V74Z" fill="black"/>
<path d="M48.2624 67.8177V65.6403C48.2624 63.1881 50.2571 61.1937 52.7089 61.1937C61.953 61.1934 69.4738 53.673 69.4738 44.4289C69.4738 35.1848 61.953 27.6641 52.7089 27.6641L30.2081 27.6641C29.3907 27.6641 28.7282 28.3265 28.7282 29.1439V76.6969C28.7282 77.5142 29.3907 78.1767 30.2081 78.1767H37.9033C43.6155 78.1767 48.2624 73.5298 48.2624 67.8177ZM52.7089 30.6238C60.3213 30.6238 66.514 36.8165 66.514 44.4289C66.514 52.0409 60.321 58.234 52.7089 58.234C48.625 58.234 45.3027 61.5564 45.3027 65.6403V67.8177C45.3027 71.3909 42.7564 74.3807 39.3832 75.0682V30.6238H52.7089Z" fill="black"/>
<rect x="48.1637" y="27.6641" width="1.57852" height="11.9376" fill="black"/>
<path d="M43.7241 40.1938C43.7241 39.322 44.4308 38.6152 45.3026 38.6152H52.6033C53.4751 38.6152 54.1818 39.322 54.1818 40.1938V58.3327C54.1818 59.0409 53.7102 59.6624 53.0281 59.853L48.403 61.1453C47.8322 61.3048 47.3989 61.7706 47.2809 62.3514L45.014 73.5115C44.9523 73.8151 44.6854 74.0333 44.3756 74.0333C44.0158 74.0333 43.7241 73.7416 43.7241 73.3818V40.1938Z" fill="black"/>
<circle cx="48.953" cy="39.6021" r="1.97315" fill="black"/>
<path d="M63.2583 32.8928H64.8368V39.6015H63.2583V32.8928Z" fill="black"/>
<path d="M58.1282 40.1938C58.1282 39.322 58.8349 38.6152 59.7067 38.6152H67.0074C67.8791 38.6152 68.5859 39.322 68.5859 40.1938V47.5849C68.5859 47.9715 68.444 48.3446 68.1872 48.6336L59.3179 58.6115C59.1887 58.7569 59.0035 58.84 58.809 58.84C58.433 58.84 58.1282 58.5352 58.1282 58.1592V40.1938Z" fill="black"/>
<circle cx="64.0476" cy="39.6021" r="1.97315" fill="black"/>
</svg>
